<?xml version="1.0" encoding="UTF-8" standalone="no"?>
<svg width="24px" height="23px" viewBox="0 0 24 23" version="1.1" xmlns="http://www.w3.org/2000/svg" xmlns:xlink="http://www.w3.org/1999/xlink">
    <!-- Generator: Sketch 3.7.2 (28276) - http://www.bohemiancoding.com/sketch -->
    <title>Fill 1</title>
    <desc>Created with Sketch.</desc>
    <defs></defs>
    <g id="Page-1" stroke="none" stroke-width="1" fill="none" fill-rule="evenodd">
        <g id="Home-HD--Copy" transform="translate(-628.000000, -5133.000000)" fill="#000000">
            <g id="Footer-Copy" transform="translate(52.000000, 5133.000000)">
                <g id="Social-Media" transform="translate(538.000000, 0.000000)">
                    <path d="M52.7102145,11.5047484 L50.6900239,11.5047484 L50.6900239,18.622601 L47.6950661,18.622601 L47.6950661,11.5047484 L46.2713677,11.5047484 L46.2713677,8.99047026 L47.6950661,8.99047026 L47.6950661,7.36271852 C47.6950661,6.19793584 48.2545479,4.37739904 50.7174212,4.37739904 L52.9356414,4.38594616 L52.9356414,6.82662409 L51.3244877,6.82662409 C51.0625311,6.82662409 50.6900239,6.95673027 50.6900239,7.51134346 L50.6900239,8.99047026 L52.9721711,8.99047026 L52.7102145,11.5047484 Z M49.6224904,0.103838459 C43.2499739,0.103838459 38.0848614,5.20552011 38.0848614,11.5 C38.0848614,17.7935302 43.2499739,22.8961615 49.6224904,22.8961615 C55.9921229,22.8961615 61.1572354,17.7935302 61.1572354,11.5 C61.1572354,5.20552011 55.9921229,0.103838459 49.6224904,0.103838459 L49.6224904,0.103838459 Z" id="Fill-1"></path>
                </g>
            </g>
        </g>
    </g>
</svg>