<svg id="Layer_1" data-name="Layer 1" xmlns="http://www.w3.org/2000/svg" viewBox="0 0 44.49 33.88"><title>Icons</title><path class="cls-1" d="M44.12,31.86s-3.59-1.26-7.86-6a13.6,13.6,0,0,0,5-10.21C41.27,7,32,0,20.64,0S0,7,0,15.62,9.26,31.23,20.64,31.23a26.84,26.84,0,0,0,6.14-.7,25.5,25.5,0,0,0,12,3.35,12.92,12.92,0,0,0,5.44-1A0.56,0.56,0,0,0,44.12,31.86ZM27.27,29.54a0.64,0.64,0,0,0-.46-0.15H26.73l-0.08,0a25.72,25.72,0,0,1-6,.7c-10.77,0-19.53-6.51-19.53-14.5S9.87,1.11,20.64,1.11s19.52,6.51,19.52,14.5a12.66,12.66,0,0,1-5,9.72,0.56,0.56,0,0,0-.07.79,26.25,26.25,0,0,0,7.38,6.17C40.11,32.9,34.72,33.51,27.27,29.54Z"/></svg>