<?xml version="1.0" encoding="UTF-8" standalone="no"?>
<svg width="23px" height="23px" viewBox="0 0 23 23" version="1.1" xmlns="http://www.w3.org/2000/svg" xmlns:xlink="http://www.w3.org/1999/xlink">
    <!-- Generator: Sketch 3.7.2 (28276) - http://www.bohemiancoding.com/sketch -->
    <title>Fill 1</title>
    <desc>Created with Sketch.</desc>
    <defs></defs>
    <g id="Page-1" stroke="none" stroke-width="1" fill="none" fill-rule="evenodd">
        <g id="Home-HD--Copy" transform="translate(-666.000000, -5133.000000)" fill="#000000">
            <g id="Footer-Copy" transform="translate(52.000000, 5133.000000)">
                <g id="Social-Media" transform="translate(538.000000, 0.000000)">
                    <path d="M92.9430809,8.43198165 L92.9430809,6.33218639 L92.9430809,6.01783441 L92.6287289,6.01973382 L90.5289337,6.02638175 L90.537481,8.44052898 L92.9430809,8.43198165 Z M94.5922417,7.12993764 C94.5922417,5.61183601 93.3566769,4.37722098 91.8385753,4.37722098 L83.0994003,4.37722098 C81.5808238,4.37722098 80.3466836,5.61183601 80.3466836,7.12993764 L80.3466836,10.0384057 L80.3466836,15.8700624 C80.3466836,17.388164 81.5808238,18.622779 83.0994003,18.622779 L91.8385753,18.622779 C93.3566769,18.622779 94.5922417,17.388164 94.5922417,15.8700624 L94.5922417,10.0384057 L94.5922417,7.12993764 Z M98.8659091,11.5 C98.8659091,17.7936875 93.7631502,22.8964464 87.4694627,22.8964464 C81.1748254,22.8964464 76.0720665,17.7936875 76.0720665,11.5 C76.0720665,5.20536275 81.1748254,0.103553567 87.4694627,0.103553567 C93.7631502,0.103553567 98.8659091,5.20536275 98.8659091,11.5 L98.8659091,11.5 Z M91.3646731,11.5 C91.3646731,13.6477553 89.617218,15.3952104 87.4694627,15.3952104 C85.3212325,15.3952104 83.5742522,13.6477553 83.5742522,11.5 C83.5742522,10.9833611 83.6768203,10.4899899 83.860588,10.0384057 L81.734201,10.0384057 L81.734201,15.8700624 C81.734201,16.6231775 82.3462851,17.2352617 83.0994003,17.2352617 L91.8385753,17.2352617 C92.5916905,17.2352617 93.2047243,16.6231775 93.2047243,15.8700624 L93.2047243,10.0384057 L91.0769128,10.0384057 C91.2606805,10.4899899 91.3646731,10.9833611 91.3646731,11.5 L91.3646731,11.5 Z M84.9612947,11.5 C84.9612947,10.9543951 85.1393642,10.4501024 85.4361467,10.0384057 C85.8924794,9.40685267 86.6327735,8.99325664 87.4694627,8.99325664 C88.3056769,8.99325664 89.0459711,9.40685267 89.5023038,10.0384057 C89.7990862,10.4501024 89.9771557,10.9543951 89.9771557,11.5 C89.9771557,12.8818191 88.8512818,14.0067434 87.4694627,14.0067434 C86.0866938,14.0067434 84.9612947,12.8818191 84.9612947,11.5 L84.9612947,11.5 Z" id="Fill-1"></path>
                </g>
            </g>
        </g>
    </g>
</svg>