<svg id="Layer_1" data-name="Layer 1" xmlns="http://www.w3.org/2000/svg" viewBox="0 0 558.6 79.09"><defs><style>.cls-1{fill:none;}</style></defs><title>lommer logo</title><polygon class="cls-1" points="6.35 72.23 6.3 0.03 0 0.03 0 79.02 50.68 79.02 50.68 72.51 6.35 72.51 6.35 72.23"/><polygon class="cls-1" points="418.02 0.04 418.02 79.02 468.7 79.02 468.7 72.61 424.22 72.61 424.22 42.72 455.89 42.72 455.89 36.31 424.22 36.31 424.22 6.45 468.7 6.45 468.7 0.04 418.19 0.03 418.02 0.04"/><path class="cls-1" d="M113.08,0C92,0,74.93,17.75,74.93,39.53S92,79,113.08,79s38.15-17.72,38.15-39.49S134.12,0,113.08,0Zm0,72.75C95.37,72.79,81,57.87,81,39.53S95.37,6.27,113.08,6.27,145.2,21.19,145.2,39.53,130.79,72.79,113.08,72.79Z"/><path class="cls-1" d="M313.9,38V0h-6.19L281.62,19l-0.16-.12L255.53,0h-6.1v37.9L249,37.61,197.26,0h-6.1V79.05h6.2V8.58l0.44,0.32,51.62,37.55V79.09h6.2V46.44l0.11-.08L281.6,27.5l0.16,0.12L307.7,46.48V79.05h6.2V46.47l0.11-.08,52-37.9v70.6h6.2V0H366Zm-58.27,0V8.62l20.14,14.65Zm52.07,0L287.44,23.23,307.7,8.46V38Z"/><path class="cls-1" d="M537,42.67h0.48A21.29,21.29,0,0,0,536.93.09H507.51v79h6.21V42.69h15.67l21.23,36.4h8Zm-23.29-6.32V6.5l0.28,0h22.93a15,15,0,0,1,15,14.95,15,15,0,0,1-15,14.95H513.72Z"/></svg>