<?xml version="1.0" encoding="UTF-8" standalone="no"?>
<svg width="24px" height="23px" viewBox="0 0 24 23" version="1.1" xmlns="http://www.w3.org/2000/svg" xmlns:xlink="http://www.w3.org/1999/xlink">
    <!-- Generator: Sketch 3.7.2 (28276) - http://www.bohemiancoding.com/sketch -->
    <title>Fill 1</title>
    <desc>Created with Sketch.</desc>
    <defs></defs>
    <g id="Page-1" stroke="none" stroke-width="1" fill="none" fill-rule="evenodd">
        <g id="Home-HD--Copy" transform="translate(-590.000000, -5133.000000)" fill="#000000">
            <g id="Footer-Copy" transform="translate(52.000000, 5133.000000)">
                <g id="Social-Media" transform="translate(538.000000, 0.000000)">
                    <path d="M12.7465583,14.6728813 C11.8520604,14.6728813 11.0109151,14.1961419 10.7225225,13.6529249 C10.7225225,13.6529249 10.241868,15.5380399 10.14045,15.9027171 C9.78188175,17.1881091 8.72684527,18.4744509 8.64513402,18.5803402 C8.58793614,18.6534656 8.46104337,18.6301984 8.4480657,18.5328562 C8.42547494,18.3695112 8.15678912,16.7474575 8.47305973,15.4240783 C8.6316757,14.7593022 9.53867061,10.9648552 9.53867061,10.9648552 C9.53867061,10.9648552 9.27383002,10.443006 9.27383002,9.67044123 C9.27383002,8.45817455 9.98567923,7.55217971 10.872006,7.55217971 C11.6247108,7.55217971 11.9890469,8.1115413 11.9890469,8.78106579 C11.9890469,9.52941373 11.5064699,10.6476621 11.2565296,11.6837631 C11.0493675,12.5527204 11.6977703,13.2602321 12.5653516,13.2602321 C14.1332463,13.2602321 15.1902054,11.2692277 15.1902054,8.90974745 C15.1902054,7.11722621 13.9679012,5.77437851 11.7439131,5.77437851 C9.23249374,5.77437851 7.66604094,7.62530508 7.66604094,9.69275872 C7.66604094,10.4059685 7.87897085,10.909299 8.21302569,11.298193 C8.36635445,11.4772077 8.38702259,11.5484337 8.33222798,11.7535646 C8.2908917,11.9055134 8.20100932,12.2673415 8.16255697,12.4107432 C8.10824302,12.6177735 7.93809135,12.6918486 7.74775219,12.6149245 C6.59177829,12.1486315 6.05200336,10.8964783 6.05200336,9.48952717 C6.05200336,7.16518505 8.03662551,4.37739904 11.9712627,4.37739904 C15.1339689,4.37739904 17.2152025,6.63858742 17.2152025,9.06549499 C17.2152025,12.2754138 15.4089032,14.6728813 12.7465583,14.6728813 M11.6343239,0.103838459 C5.26276878,0.103838459 0.09765625,5.20599495 0.09765625,11.5 C0.09765625,17.7935302 5.26276878,22.8961615 11.6343239,22.8961615 C18.0044371,22.8961615 23.1700303,17.7935302 23.1700303,11.5 C23.1700303,5.20599495 18.0044371,0.103838459 11.6343239,0.103838459" id="Fill-1"></path>
                </g>
            </g>
        </g>
    </g>
</svg>