<svg id="Layer_1" data-name="Layer 1" xmlns="http://www.w3.org/2000/svg" viewBox="0 0 36.79 42.3"><title>Icons</title><path class="cls-1" d="M36.51,10.39h0L18.67,0.07a0.56,0.56,0,0,0-.56,0L0.28,10.39h0a0.56,0.56,0,0,0-.28.48V31.56A0.56,0.56,0,0,0,.28,32L18.12,42.22h0a0.55,0.55,0,0,0,.55,0h0L36.51,32a0.56,0.56,0,0,0,.28-0.48V10.87A0.56,0.56,0,0,0,36.51,10.39Zm-18.12,10L10.59,16,27.31,6.36l7.8,4.51Zm0-19.22L26.2,5.71,9.47,15.32l-7.8-4.45ZM1.11,11.83L9.2,16.45h0l8.64,4.93v19.4L1.11,31.24V11.83Zm34.57,19.4L19,40.78V21.38l16.73-9.55v19.4Z"/></svg>