<svg id="Layer_1" data-name="Layer 1" xmlns="http://www.w3.org/2000/svg" xmlns:xlink="http://www.w3.org/1999/xlink" viewBox="0 0 74.46 67.95"><defs><style>.cls-1,.cls-3{fill:none;stroke-miterlimit:10;}.cls-1{stroke:#000;stroke-width:0.12px;}.cls-2{fill:#404041;}.cls-3{stroke:#231f20;stroke-width:0.12px;}.cls-4{fill:url(#linear-gradient);}.cls-5{fill:#231f20;}</style><linearGradient id="linear-gradient" x1="1295.81" y1="1619.02" x2="1298.92" y2="1639.32" gradientTransform="matrix(1, 0.05, -0.05, 1, -1175.05, -1684.71)" gradientUnits="userSpaceOnUse"><stop offset="0" stop-color="#58595b"/><stop offset="0.02" stop-color="#626365"/><stop offset="0.1" stop-color="#858689"/><stop offset="0.14" stop-color="#929497"/><stop offset="0.2" stop-color="#818285"/><stop offset="0.3" stop-color="#696a6c"/><stop offset="0.41" stop-color="#575759"/><stop offset="0.54" stop-color="#4a4a4b"/><stop offset="0.7" stop-color="#424243"/><stop offset="1" stop-color="#404041"/></linearGradient></defs><title>Icons</title><path class="cls-1" d="M65.44,63.45s3.69-8.72,5.2-11.69,4-8.7,3.75-11.61a28.57,28.57,0,0,0-2.13-7.54c-0.6-1.53-2-4.78-2.6-5.88A26.72,26.72,0,0,1,68,21.27c-0.17-1,0-1.83-.65-2.12S63.9,18,56.13,18.55,43,20.52,38,20.6a90.51,90.51,0,0,1-14.25-1.12,66.9,66.9,0,0,0-12.9-1.07c-4.28.23-4.62,0.6-4.62,1.29a35.13,35.13,0,0,1-1,5.7,61.84,61.84,0,0,0-2.42,5.82C2.13,33.41.18,37.92,0.07,39.92a22.65,22.65,0,0,0,1.58,7.36A83,83,0,0,0,5.43,55.2c1,1.75,2.57,5.63,3.09,7S9.11,65.15,11.59,66A32.79,32.79,0,0,0,22,67.72c5.58,0.21,20,.2,23.22.1S58,67.3,60.71,66.46,64.51,65.87,65.44,63.45Z"/><path class="cls-1" d="M67.35,19.14a1.39,1.39,0,0,1,1.08,1,33.65,33.65,0,0,0,1.42,4.48,53.88,53.88,0,0,1,1.86,5.61l0.84,3.14"/><path class="cls-1" d="M6.44,19.14a2.58,2.58,0,0,0-.83.73c-0.11.3-.48,2.68-0.74,3.62a51.41,51.41,0,0,1-2.11,5.58A25.38,25.38,0,0,0,.63,37.4"/><path class="cls-1" d="M3,50.45A63.87,63.87,0,0,0,5.78,58c0.9,1.52,2.21,4.67,2.41,5.11a1.3,1.3,0,0,0,1,1"/><path class="cls-1" d="M65.2,64a2.79,2.79,0,0,0,1.3-1.44c0.68-1.26,4-8.78,4.66-11.86"/><path class="cls-2" d="M40.71,67.88s0.09-19.09.16-22.49-0.13-15.22-.11-15.66a80.68,80.68,0,0,1-8.61,0s-0.23,16.75-.21,20.36,0,16.77,0,17.75h8.73Z"/><line class="cls-3" x1="31.41" y1="29.81" x2="41.49" y2="29.77"/><path class="cls-2" d="M38.27,0s2.24,0,1.78,20.5l-3.48-6.86L35.44,1.53Z"/><path class="cls-4" d="M31.46,20.38l2.45,0.15,1.8,0.09,2.28,0,2.07-.1s-1.86-13.62-2-15S37.58,0.62,38.27,0l-8.33.87s-1,1.09-.32,6S31.39,19.38,31.46,20.38Z"/><ellipse class="cls-5" cx="9.03" cy="21.29" rx="1.15" ry="0.85" transform="translate(-12.7 29.19) rotate(-86.98)"/><ellipse class="cls-5" cx="65.32" cy="21.1" rx="0.85" ry="1.15" transform="translate(-2.12 8.29) rotate(-7.15)"/></svg>