<svg id="Layer_1" data-name="Layer 1" xmlns="http://www.w3.org/2000/svg" viewBox="0 0 64.27 24.14"><defs><style>.cls-1{fill:none;stroke:#231f20;stroke-miterlimit:10;stroke-width:0.16px;}.cls-2{fill:#231f20;}</style></defs><title>bags</title><path class="cls-1" d="M4.4,21.17a10.79,10.79,0,0,0,.41,2.88c3.33-1,20.48-1.85,27.33-1.85s24,0.82,27.33,1.85a10.79,10.79,0,0,0,.41-2.88"/><path class="cls-1" d="M32.14,0.45C30.31,0.45,19.57.33,18,.28S2.83,0.08,2.83.08C0.2,2.34.08,21.17,0.08,21.17c5.84-.25,32.06-0.25,32.06-0.25s26.22,0,32.06.25c0,0-.12-18.83-2.75-21.09,0,0-13.69.16-15.21,0.21S34,0.45,32.14.45Z"/><ellipse class="cls-2" cx="32.14" cy="18.43" rx="1.34" ry="1.36"/></svg>