<svg id="Layer_1" data-name="Layer 1" xmlns="http://www.w3.org/2000/svg" viewBox="0 0 82.19 32.59"><defs><style>.cls-1{fill:none;stroke:#000;stroke-miterlimit:10;stroke-width:0.2px;}</style></defs><title>Icons</title><path class="cls-1" d="M58.57,0.18c3.75,0,16.68.08,18,0s2-.27,2.8.91,2.39,4.36,2.65,10.12c0,2.84.42,3-2.24,4S45,28,45,28a12.5,12.5,0,0,1-3,.68,16.26,16.26,0,0,1-4.78-.83c-2-.64-36-13.91-36-13.91S0,13.62.11,11.65,0.87,1.72,2.16.33A65.24,65.24,0,0,1,9.08.22c1,0,21.45,0,27.32-.1S51.9,0.11,58.57.18Z"/><path class="cls-1" d="M77.54,16.09s0.33,6.42.29,8.85-0.07,5.81-.58,7.1a275.52,275.52,0,0,0-35.1-2.11A255.71,255.71,0,0,0,5,32.47a34.06,34.06,0,0,1-.57-5V15.14"/><ellipse cx="41.42" cy="21.62" rx="1.43" ry="1.36"/><ellipse cx="6.56" cy="28.04" rx="1.25" ry="1.26"/><ellipse cx="75.09" cy="27.54" rx="1.19" ry="1.26"/></svg>