<svg id="Layer_1" data-name="Layer 1" xmlns="http://www.w3.org/2000/svg" viewBox="0 0 40.4 22.21"><defs><style>.cls-1,.cls-2{fill:none;stroke-miterlimit:10;stroke-width:0.15px;}.cls-1{stroke:#000;}.cls-2{stroke:#231f20;}</style></defs><title>Icons</title><path class="cls-1" d="M20.2,11.22h0c-2.74,0-13.1-.11-17.3-0.16,0,0,.46,3.34.6,4.54s0.55,6.05.95,6.53c0.8,0,10.76-.83,15.75-0.82h0"/><path class="cls-1" d="M20.19,0.75C15.6,0.75,4.56.28,3.29,0.2A15,15,0,0,0,.56.12C-0.78.89,1.09,11,1.09,11H2.32v0H2.89c4.2,0,14.56.16,17.3,0.16h0M3.61,9.87a1.11,1.11,0,1,1,0-2.22A1.11,1.11,0,1,1,3.61,9.87Z"/><ellipse cx="3.61" cy="8.76" rx="1.17" ry="1.11"/><path class="cls-2" d="M2.33,11.06s1.39,7.07,1.59,8.43"/><path class="cls-1" d="M20.2,11.22h0c2.74,0,13.1-.11,17.3-0.16,0,0-.46,3.34-0.6,4.54s-0.55,6.05-.95,6.53c-0.8,0-10.76-.83-15.75-0.82h0"/><path class="cls-1" d="M20.2,11.22h0c2.74,0,13.1-.11,17.3-0.16h0.57v0h1.23S41.19,0.89,39.84.12A15,15,0,0,0,37.12.2C35.84,0.28,24.78.75,20.19,0.75m15.45,8A1.17,1.17,0,1,1,36.8,9.87,1.14,1.14,0,0,1,35.63,8.76Z"/><ellipse cx="36.8" cy="8.76" rx="1.17" ry="1.11"/><path class="cls-2" d="M38.08,11.06s-1.39,7.07-1.59,8.43"/></svg>