<svg id="Layer_1" data-name="Layer 1" xmlns="http://www.w3.org/2000/svg" viewBox="0 0 57.31 48.48"><defs><style>.cls-1,.cls-3{fill:none;stroke:#000;stroke-miterlimit:10;}.cls-1{stroke-width:0.15px;}.cls-2{fill:#050001;}.cls-3{stroke-width:0.15px;}</style></defs><title>Icons</title><path class="cls-1" d="M28.87,36.72L6,36.66,0.56,30.78S0.25,30.61.32,28.65s0.33-18,.33-18S0.39,9.8,1.83,9.23,25.43,1,25.43,1a11.48,11.48,0,0,1,7.84.14C37.8,2.74,55.43,9.56,55.43,9.56S57,10.19,57,12.84L56.65,29.93a3.67,3.67,0,0,1-1,2.17c-1,1.11-4.27,4.67-4.27,4.67l-6.74,0"/><circle class="cls-2" cx="13.92" cy="35.18" r="0.97" transform="translate(-21.51 48.45) rotate(-88.94)"/><circle class="cls-2" cx="7.74" cy="28.41" r="0.97" transform="translate(-20.81 35.63) rotate(-88.94)"/><circle class="cls-2" cx="29.15" cy="4.85" r="0.97" transform="translate(23.76 33.91) rotate(-88.94)"/><circle class="cls-2" cx="49.62" cy="28.7" r="0.97" transform="translate(20.01 77.78) rotate(-88.94)"/><ellipse class="cls-3" cx="30.66" cy="23.85" rx="0.69" ry="0.97" transform="translate(-1.71 2.37) rotate(-4.31)"/><path class="cls-3" d="M33.9,33.67l-0.27-.25L30,38.13,41.16,48.25s1.33-.87,2.46-5.37l-0.25-.5Z"/><ellipse class="cls-2" cx="34.61" cy="37.56" rx="1.23" ry="1.68" transform="translate(-16.37 40.61) rotate(-50.76)"/><ellipse class="cls-2" cx="40.97" cy="43.15" rx="1.23" ry="1.68" transform="translate(-18.37 47.59) rotate(-50.76)"/><ellipse class="cls-3" cx="33.9" cy="23.71" rx="9.73" ry="3.5"/><path class="cls-3" d="M24.17,23.71V33.83s3,3.13,6.71,3.21"/><path class="cls-3" d="M43.1,24.84L33.9,33.67l9.48,8.71a18.16,18.16,0,0,0,1.25-5.54c0-2.29-.46-10.75-1-13.13"/><ellipse class="cls-3" cx="33.9" cy="23.34" rx="5.73" ry="2.29"/><line class="cls-3" x1="31.45" y1="21.27" x2="31.91" y2="25.48"/></svg>